<?xml version="1.0" encoding="UTF-8"?>
<!DOCTYPE svg PUBLIC "-//W3C//DTD SVG 1.1//EN" "http://www.w3.org/Graphics/SVG/1.1/DTD/svg11.dtd">
<svg xmlns="http://www.w3.org/2000/svg" version="1.1" width="409px" height="415px" style="shape-rendering:geometricPrecision; text-rendering:geometricPrecision; image-rendering:optimizeQuality; fill-rule:evenodd; clip-rule:evenodd" xmlns:xlink="http://www.w3.org/1999/xlink">
<g><path style="opacity:1" fill="#393c53" d="M -0.5,-0.5 C 135.833,-0.5 272.167,-0.5 408.5,-0.5C 408.5,137.833 408.5,276.167 408.5,414.5C 272.167,414.5 135.833,414.5 -0.5,414.5C -0.5,276.167 -0.5,137.833 -0.5,-0.5 Z"/></g>
<g><path style="opacity:1" fill="#fefefe" d="M 142.5,353.5 C 141.833,355.5 141.167,357.5 140.5,359.5C 140.211,354.056 139.378,348.723 138,343.5C 137.39,349.449 136.056,355.449 134,361.5C 132.916,360.335 132.083,359.002 131.5,357.5C 130.675,356.614 129.675,356.281 128.5,356.5C 129.209,349.855 128.042,349.188 125,354.5C 120.361,351.173 115.195,349.006 109.5,348C 99.8333,347.667 90.1667,347.333 80.5,347C 67.4568,343.726 57.6235,336.226 51,324.5C 51.2375,310.317 50.4042,296.15 48.5,282C 49.8333,277.333 49.8333,272.667 48.5,268C 49.6947,261.556 50.528,255.056 51,248.5C 52.3333,247.833 53.6667,247.167 55,246.5C 54.8219,241.075 56.1553,236.075 59,231.5C 60.9157,229.791 63.0824,228.457 65.5,227.5C 65.8333,226.667 66.1667,225.833 66.5,225C 63.727,210.253 62.8937,195.419 64,180.5C 60.5335,177.874 58.3669,174.54 57.5,170.5C 56.8333,167.833 56.1667,165.167 55.5,162.5C 53.8633,149.752 51.6967,137.086 49,124.5C 48.0832,115.091 48.4165,105.758 50,96.5C 52.128,93.3699 54.628,90.5366 57.5,88C 93.0613,69.753 130.895,61.5863 171,63.5C 195.497,64.391 219.997,64.5577 244.5,64C 262.153,60.8912 279.82,57.8912 297.5,55C 304.833,54.6667 312.167,54.3333 319.5,54C 337.489,45.4466 350.989,49.9466 360,67.5C 364.689,76.9356 367.355,86.9356 368,97.5C 369.083,119.147 369.583,140.814 369.5,162.5C 368.306,209.488 367.472,256.488 367,303.5C 365.996,313.877 364.662,324.21 363,334.5C 362,336.833 361,339.167 360,341.5C 351.213,346.143 342.38,350.643 333.5,355C 326.615,356.717 319.615,357.717 312.5,358C 286.5,358.333 260.5,358.667 234.5,359C 229.863,359.996 225.196,360.83 220.5,361.5C 215.61,360.061 210.61,359.394 205.5,359.5C 197.975,359.878 190.475,360.545 183,361.5C 179.987,361.516 177.487,360.516 175.5,358.5C 172.339,360.975 169.339,360.642 166.5,357.5C 165.008,359.166 163.175,360.166 161,360.5C 157.793,359.625 154.793,358.291 152,356.5C 150.04,357.292 148.54,358.625 147.5,360.5C 146.676,357.215 146.176,353.882 146,350.5C 145.667,350.167 145.333,349.833 145,349.5C 144.066,350.858 143.232,352.192 142.5,353.5 Z"/></g>
<g><path style="opacity:1" fill="#3a3d54" d="M 202.5,83.5 C 226.803,80.5911 249.137,85.7578 269.5,99C 289.644,116.465 299.644,138.631 299.5,165.5C 297.657,226.787 265.991,256.287 204.5,254C 189.634,252.489 175.801,247.989 163,240.5C 161.744,266.49 160.744,292.49 160,318.5C 158.923,321.913 156.756,324.413 153.5,326C 147.92,327.517 142.253,327.851 136.5,327C 129.583,324.586 126.583,319.752 127.5,312.5C 130.147,250.86 130.981,189.193 130,127.5C 128.168,119.5 124.501,112.5 119,106.5C 118.3,98.8474 121.467,93.3474 128.5,90C 131.614,88.0691 134.947,87.4024 138.5,88C 142.241,89.7379 145.408,92.2379 148,95.5C 151.252,100.334 154.252,105.334 157,110.5C 165.616,99.6077 176.45,91.7744 189.5,87C 193.929,85.6823 198.262,84.5156 202.5,83.5 Z"/></g>
<g><path style="opacity:1" fill="#fdfdfd" d="M 205.5,110.5 C 241.256,107.107 261.423,123.107 266,158.5C 268.515,177.427 264.515,194.76 254,210.5C 239.643,225.394 222.143,230.894 201.5,227C 187.247,224.789 174.747,218.955 164,209.5C 163.032,186.77 163.365,164.103 165,141.5C 173.875,124.994 187.375,114.661 205.5,110.5 Z"/></g>
<g><path style="opacity:1" fill="#999ba6" d="M 55.5,162.5 C 56.1667,165.167 56.8333,167.833 57.5,170.5C 57.44,171.043 57.1067,171.376 56.5,171.5C 55.5159,168.572 55.1826,165.572 55.5,162.5 Z"/></g>
<g><path style="opacity:1" fill="#838693" d="M 142.5,353.5 C 142.664,356.187 142.497,358.854 142,361.5C 141.283,360.956 140.783,360.289 140.5,359.5C 141.167,357.5 141.833,355.5 142.5,353.5 Z"/></g>
</svg>
